<svg width="20" height="20" viewBox="0 0 20 20" fill="none" xmlns="http://www.w3.org/2000/svg">
<path d="M16.25 0.470703H3.75C1.67763 0.470703 0 2.10885 0 4.13245V16.3383C0 18.3619 1.67763 20 3.75 20H16.25C18.3224 20 20 18.3619 20 16.3383V4.13245C20 2.10885 18.3224 0.470703 16.25 0.470703ZM12.5822 10.2354H10.943V16.092H8.69518V10.2354H7.19298V8.21711H8.69518V7.02865C8.69518 5.37979 9.15022 4.3787 11.1404 4.3787H12.7961V6.39695H11.7599C10.9868 6.39695 10.9485 6.68068 10.9485 7.20531V8.21711H12.807L12.5822 10.2354Z" fill="white"/>
</svg>
