<svg width="20" height="20" viewBox="0 0 20 20" fill="none" xmlns="http://www.w3.org/2000/svg">
<path d="M16.6406 0.470703H3.35938C1.51042 0.470703 0 1.94557 0 3.75101V16.7197C0 18.5251 1.51042 20 3.35938 20H16.6406C18.4896 20 20 18.5251 20 16.7197V3.75101C20 1.94557 18.4896 0.470703 16.6406 0.470703ZM7.5 16.3383H5V7.79419H7.5V16.3383ZM6.25 6.57361C5.55729 6.57361 5 6.02943 5 5.35303C5 4.67662 5.55729 4.13245 6.25 4.13245C6.94271 4.13245 7.5 4.67662 7.5 5.35303C7.5 6.02943 6.94271 6.57361 6.25 6.57361ZM16.25 16.3383H13.75V11.4559C13.75 10.7795 13.1927 10.2354 12.5 10.2354C11.8073 10.2354 11.25 10.7795 11.25 11.4559V16.3383H8.75V7.79419H11.25V9.30974C11.7656 8.61808 12.5521 7.79419 13.4375 7.79419C14.9896 7.79419 16.25 9.16226 16.25 10.8456V16.3383Z" fill="white"/>
</svg>
