<svg width="20" height="20" viewBox="0 0 20 20" fill="none" xmlns="http://www.w3.org/2000/svg">
<path d="M16.25 0.470703H3.75C1.67763 0.470703 0 2.10885 0 4.13245V16.3383C0 18.3619 1.67763 20 3.75 20H16.25C18.3224 20 20 18.3619 20 16.3383V4.13245C20 2.10885 18.3224 0.470703 16.25 0.470703ZM14.9726 8.04045L14.9781 8.35095C14.9781 11.5309 12.5 15.1926 7.97149 15.1926C6.57895 15.1926 5.28509 14.7965 4.19956 14.1112C4.39145 14.1326 4.58882 14.1434 4.78618 14.1434C5.9375 14.1434 7.0011 13.7579 7.8454 13.1155C6.76535 13.0941 5.86075 12.3981 5.54276 11.4452C5.69627 11.472 5.8443 11.4881 6.00877 11.4881C6.23355 11.4881 6.45285 11.4613 6.6557 11.4024C5.5318 11.1776 4.68202 10.2086 4.68202 9.04689V9.01477C5.01645 9.19679 5.39474 9.30386 5.79496 9.31456C5.13706 8.88629 4.69846 8.14752 4.69846 7.31238C4.69846 6.8734 4.81908 6.46119 5.0329 6.10251C6.24452 7.55864 8.05921 8.5169 10.1096 8.61326C10.0658 8.4366 10.0439 8.25458 10.0439 8.06721C10.0439 6.73956 11.1458 5.66353 12.5055 5.66353C13.2127 5.66353 13.8542 5.95796 14.3037 6.42371C14.8629 6.31664 15.3893 6.11321 15.8662 5.84019C15.6798 6.4023 15.2906 6.8734 14.7862 7.17319C15.2851 7.1143 15.7566 6.98582 16.2007 6.7931C15.8772 7.28026 15.455 7.70853 14.9726 8.04045Z" fill="white"/>
</svg>
